<svg id="visual" viewBox="0 0 900 600" width="900" height="600" xmlns="http://www.w3.org/2000/svg" xmlns:xlink="http://www.w3.org/1999/xlink" version="1.1"><rect x="0" y="0" width="900" height="600" fill="#001220"></rect><path d="M0 398L21.5 397.3C43 396.7 86 395.3 128.8 396.7C171.7 398 214.3 402 257.2 407.3C300 412.7 343 419.3 385.8 410.8C428.7 402.3 471.3 378.7 514.2 378.5C557 378.3 600 401.7 642.8 415.5C685.7 429.3 728.3 433.7 771.2 421C814 408.3 857 378.7 878.5 363.8L900 349L900 601L878.5 601C857 601 814 601 771.2 601C728.3 601 685.7 601 642.8 601C600 601 557 601 514.2 601C471.3 601 428.7 601 385.8 601C343 601 300 601 257.2 601C214.3 601 171.7 601 128.8 601C86 601 43 601 21.5 601L0 601Z" fill="#fa7268"></path><path d="M0 416L21.5 417C43 418 86 420 128.8 416.8C171.7 413.7 214.3 405.3 257.2 412.2C300 419 343 441 385.8 449.8C428.7 458.7 471.3 454.3 514.2 443C557 431.7 600 413.3 642.8 413.3C685.7 413.3 728.3 431.7 771.2 435.3C814 439 857 428 878.5 422.5L900 417L900 601L878.5 601C857 601 814 601 771.2 601C728.3 601 685.7 601 642.8 601C600 601 557 601 514.2 601C471.3 601 428.7 601 385.8 601C343 601 300 601 257.2 601C214.3 601 171.7 601 128.8 601C86 601 43 601 21.5 601L0 601Z" fill="#ef5f67"></path><path d="M0 448L21.5 449.7C43 451.3 86 454.7 128.8 459.2C171.7 463.7 214.3 469.3 257.2 467.2C300 465 343 455 385.8 450.3C428.7 445.7 471.3 446.3 514.2 451C557 455.7 600 464.3 642.8 464.3C685.7 464.3 728.3 455.7 771.2 458C814 460.3 857 473.7 878.5 480.3L900 487L900 601L878.5 601C857 601 814 601 771.2 601C728.3 601 685.7 601 642.8 601C600 601 557 601 514.2 601C471.3 601 428.7 601 385.8 601C343 601 300 601 257.2 601C214.3 601 171.7 601 128.8 601C86 601 43 601 21.5 601L0 601Z" fill="#e34c67"></path><path d="M0 485L21.5 492.7C43 500.3 86 515.7 128.8 515.8C171.7 516 214.3 501 257.2 500.7C300 500.3 343 514.7 385.8 517.2C428.7 519.7 471.3 510.3 514.2 511.2C557 512 600 523 642.8 524.3C685.7 525.7 728.3 517.3 771.2 512.5C814 507.7 857 506.3 878.5 505.7L900 505L900 601L878.5 601C857 601 814 601 771.2 601C728.3 601 685.7 601 642.8 601C600 601 557 601 514.2 601C471.3 601 428.7 601 385.8 601C343 601 300 601 257.2 601C214.3 601 171.7 601 128.8 601C86 601 43 601 21.5 601L0 601Z" fill="#d53867"></path><path d="M0 560L21.5 559.2C43 558.3 86 556.7 128.8 553.3C171.7 550 214.3 545 257.2 541.2C300 537.3 343 534.7 385.8 540.2C428.7 545.7 471.3 559.3 514.2 560.2C557 561 600 549 642.8 544.8C685.7 540.7 728.3 544.3 771.2 545.7C814 547 857 546 878.5 545.5L900 545L900 601L878.5 601C857 601 814 601 771.2 601C728.3 601 685.7 601 642.8 601C600 601 557 601 514.2 601C471.3 601 428.7 601 385.8 601C343 601 300 601 257.2 601C214.3 601 171.7 601 128.8 601C86 601 43 601 21.5 601L0 601Z" fill="#c62368"></path></svg>